{"title":"Machete Kills  (Action Thriller 2013)  Danny Trejo, Alexa PenaVe","uid":9477736,"size":509550560,"categoryP":"video","categoryS":"movies","magnet":"?xt=urn:btih:2d036ecb12a62d27ba45138765e5f55071b65e49&amp;dn=Machete+Kills++%28Action+Thriller+2013%29++Danny+Trejo%2C+Alexa+PenaVe&amp;tr=udp%3A%2F%2Ftracker.openbittorrent.com%3A80&amp;tr=udp%3A%2F%2Fopen.demonii.com%3A1337&amp;tr=udp%3A%2F%2Ftracker.coppersurfer.tk%3A6969&amp;tr=udp%3A%2F%2Fexodus.desync.com%3A6969","seeders":1,"leechers":0,"uploader":"BurtonW","files":1,"time":1389733247,"description":" &lt;a href=&quot;http://www.imdb.com/title/tt2002718/?ref_=fn_al_tt_1&quot; rel=&quot;nofollow&quot; target=&quot;_NEW&quot;&gt;http://www.imdb.com/title/tt2002718/?ref_=fn_al_tt_1&lt;/a&gt;\n\n\nA good quality film.\n\n\nEnglish subtitles!\n\n\nStoryline:\n\n   The U.S. government recruits Machete to battle his way through Mexico in order to take down an arms dealer who looks to launch a weapon into space.\n\n\n\nTechnical info:\n\n\nGeneral:\n\nComplete name:                  : Machete Kills  (Action Thriller 2013)  Danny Trejo, Alexa PenaVega &amp; Mel Gibson.mp4\n\nFormat                         : MPEG-4\nFormat profile                 : Base Media / Version 2\nCodec ID                       : mp42\nFile size                      : 486 MiB\nDuration                       : 1h 48mn\nOverall bit rate mode          : Variable\nOverall bit rate               : 629 Kbps\nEncoded date                   : UTC 2014-01-11 09:01:40\nTagged date                    : UTC 2014-01-11 11:18:37\n\n\nVideo:\n\nID                             : 1\nFormat                         : AVC\nFormat/Info                    : Advanced Video Codec\nFormat profile                 : &lt;a class=&quot;__cf_email__&quot; href=&quot;/cdn-cgi/l/email-protection&quot; data-cfemail=&quot;c588a4acab8589f1ebf5&quot;&gt;[email&amp;#160;protected]&lt;/a&gt;&lt;script cf-hash='f9e31' type=&quot;text/javascript&quot;&gt;\n/* &lt;![CDATA[ */!function(){try{var t=&quot;currentScript&quot;in document?document.currentScript:function(){for(var t=document.getElementsByTagName(&quot;script&quot;),e=t.length;e--;)if(t[e].getAttribute(&quot;cf-hash&quot;))return t[e]}();if(t&amp;&amp;t.previousSibling){var e,r,n,i,c=t.previousSibling,a=c.getAttribute(&quot;data-cfemail&quot;);if(a){for(e=&quot;&quot;,r=parseInt(a.substr(0,2),16),n=2;a.length-n;n+=2)i=parseInt(a.substr(n,2),16)^r,e+=String.fromCharCode(i);e=document.createTextNode(e),c.parentNode.replaceChild(e,c)}}}catch(u){}}();/* ]]&gt; */&lt;/script&gt;\nFormat settings, CABAC         : Yes\nFormat settings, ReFrames      : 8 frames\nCodec ID                       : avc1\nCodec ID/Info                  : Advanced Video Coding\nDuration                       : 1h 48mn\nBit rate mode                  : Variable\nBit rate                       : 464 Kbps\nWidth                          : 560 pixels\nHeight                         : 304 pixels\nDisplay aspect ratio           : 1.85:1\nFrame rate mode                : Variable\nFrame rate                     : 23.976 fps\nMinimum frame rate             : 23.974 fps\nMaximum frame rate             : 23.981 fps\nColor space                    : YUV\nChroma subsampling             : 4:2:0\nBit depth                      : 8 bits\nScan type                      : Progressive\nBits/(Pixel*Frame)             : 0.114\nStream size                    : 358 MiB (74%)\nWriting library                : x264 core 130 r2273 b3065e6\nEncoding settings              : Deleted\nEncoded date                   : UTC 2014-01-11 09:01:40\nTagged date                    : UTC 2014-01-11 11:18:37\nColor primaries                : BT.709\nTransfer characteristics       : BT.709\nMatrix coefficients            : BT.709\n\nAudio:\n\nID                             : 2\nFormat                         : AAC\nFormat/Info                    : Advanced Audio Codec\nFormat profile                 : LC\nCodec ID                       : 40\nDuration                       : 1h 48mn\nBit rate mode                  : Variable\nBit rate                       : 160 Kbps\nMaximum bit rate               : 307 Kbps\nChannel(s)                     : 2 channels\nChannel positions              : Front: L R\nSampling rate                  : 48.0 KHz\nCompression mode               : Lossy\nDelay relative to video        : 83ms\nStream size                    : 123 MiB (25%)\nLanguage                       : English\nEncoded date                   : UTC 2014-01-11 09:01:40\nTagged date                    : UTC 2014-01-11 11:18:36\n\nText:\n\nID                             : 3\nFormat                         : Timed text\nMuxing mode                    : sbtl\nCodec ID                       : tx3g\nDuration                       : 1h 47mn\nBit rate mode                  : Variable\nBit rate                       : 61 bps\nDelay relative to video        : 83ms\nStream size                    : 48.0 KiB (0%)\nLanguage                       : English\nEncoded date                   : UTC 2014-01-11 09:01:40\nTagged date                    : UTC 2014-01-11 11:18:36\n\n","torrent":{"xt":"urn:btih:2d036ecb12a62d27ba45138765e5f55071b65e49","amp;dn":"Machete+Kills++%28Action+Thriller+2013%29++Danny+Trejo%2C+Alexa+PenaVe","amp;tr":["udp%3A%2F%2Ftracker.openbittorrent.com%3A80","udp%3A%2F%2Fopen.demonii.com%3A1337","udp%3A%2F%2Ftracker.coppersurfer.tk%3A6969","udp%3A%2F%2Fexodus.desync.com%3A6969"],"infoHash":"2d036ecb12a62d27ba45138765e5f55071b65e49","infoHashBuffer":{"type":"Buffer","data":[45,3,110,203,18,166,45,39,186,69,19,135,101,229,245,80,113,182,94,73]},"announce":[],"urlList":[]}}